<?xml version="1.0" encoding="UTF-8"?>
<svg id="Layer_1" data-name="Layer 1" xmlns="http://www.w3.org/2000/svg" xmlns:xlink="http://www.w3.org/1999/xlink" viewBox="0 0 60 60">
  <defs>
    <style>
      .cls-1 {
        fill: url(#linear-gradient);
      }

      .cls-1, .cls-2 {
        stroke-width: 0px;
      }

      .cls-2 {
        fill: #fff;
      }
    </style>
    <linearGradient id="linear-gradient" x1="8.82" y1="8.82" x2="52.09" y2="52.09" gradientUnits="userSpaceOnUse">
      <stop offset="0" stop-color="#a7ccec"/>
      <stop offset="1" stop-color="#736ab0"/>
    </linearGradient>
  </defs>
  <rect class="cls-1" x="0" y="0" width="60" height="60" rx="15" ry="15"/>
  <path class="cls-2" d="m36.44,19.18c-.06,2.27-1.42,4.22-2.67,6.02-.37.53.5,1.02.86.5,1.36-1.96,2.74-4.06,2.8-6.52.02-.64-.98-.64-.99,0h0Z"/>
  <g>
    <path class="cls-2" d="m52.03,26.98c-1.76-4.57-5.53-7.88-9.61-9.61-.93-.39-1.88-.72-2.83-1,.42,1.96.34,4-.42,5.87-.75,1.84-2.07,3.29-3.16,4.9-1.09,1.61-2.01,3.56-1.76,5.6.21,1.75,1.23,3.25,2.21,4.65.68.98,1.41,2.16,1.16,3.35-.22,1.05-1.14,1.68-2.01,2.11-3.26,1.57-6.93,1.62-10.49.73-.42,1.07-1.06,2.06-1.69,3-.67,1-1.37,2.19-1.09,3.37.24,1.04,1.17,1.66,2.05,2.07,5.13,2.35,11.16.99,16.23-1.81,3.42-1.89,6.62-4.46,8.95-7.88,3.03-4.45,4.47-10.18,2.48-15.37Z"/>
    <path class="cls-2" d="m23.65,36.33c-1.12-1.59-2.46-3.01-3.25-4.84-1.62-3.74-.43-8.29,1.99-11.35,2.76-3.47,7.14-4.79,11.09-4.71,1.93.04,4.02.35,6.1.94-.43-2.01-1.37-3.92-2.63-5.44-2.83-3.42-7.23-4.66-11.18-4.5-2.8.11-5.96.8-8.89,2.1-4.04,1.8-7.75,5.18-9.42,9.78-1.89,5.22-.34,10.93,2.78,15.32,2.39,3.37,5.64,5.88,9.1,7.71,1.83.97,3.79,1.75,5.77,2.24.21-.54.36-1.1.42-1.69.21-2.05-.75-3.98-1.87-5.57Zm9.19-23.73c.11-1.19,1.16-2.06,2.35-1.95,1.19.11,2.06,1.16,1.95,2.35s-1.16,2.06-2.35,1.95c-1.19-.11-2.06-1.16-1.95-2.35Zm-3.65.71c.08-.83.81-1.44,1.64-1.37.83.08,1.44.81,1.37,1.64-.08.83-.81,1.44-1.64,1.37-.83-.08-1.44-.81-1.37-1.64Zm-3.7,1.07c.08-.83.81-1.44,1.64-1.37.83.08,1.44.81,1.37,1.64-.08.83-.81,1.44-1.64,1.37-.83-.08-1.44-.81-1.37-1.64Zm-3.51,1.82c.08-.83.81-1.44,1.64-1.37.83.08,1.44.81,1.37,1.64-.08.83-.81,1.44-1.64,1.37-.83-.08-1.44-.81-1.37-1.64Zm-2.81,2.57c.08-.83.81-1.44,1.64-1.37.83.08,1.44.81,1.37,1.64-.08.83-.81,1.44-1.64,1.37-.83-.08-1.44-.81-1.37-1.64Z"/>
  </g>
</svg>